<?xml version="1.0" encoding="UTF-8"?>
<svg id="Warstwa_1" data-name="Warstwa 1" xmlns="http://www.w3.org/2000/svg" viewBox="0 0 292.59 187.97">
  <defs>
    <style>
      .cls-1 {
        fill: #fff;
      }

      .cls-2 {
        fill: #f49523;
      }

      .cls-3 {
        fill: #e84339;
      }

      .cls-4 {
        fill: #eb5c2c;
      }

      .cls-5 {
        fill: #f9b041;
      }
    </style>
  </defs>
  <g>
    <path class="cls-1" d="m140.69,55.8h-30.59v12.59h34.15l-2.2,14.58h-50.89V15.82h50.83v14.58h-31.89v10.81h30.59v14.58Z"/>
    <path class="cls-1" d="m153.17,15.82h28.85c21.38,0,33.78,13.52,33.78,32.84s-12.08,34.32-34.08,34.32h-28.55V15.82Zm19.7,52.91h7.54c10.68,0,15.06-7.49,15.06-20.07,0-11.12-4.08-18.59-14.82-18.59h-7.77v38.66Z"/>
    <path class="cls-1" d="m245.82,15.82v41.29c0,9.62,4.74,12.92,10.7,12.92,6.46,0,10.21-3.94,10.21-12.92V15.82h19.77v39.31c0,22.32-13.2,29.1-30.31,29.1s-30.07-7.18-30.07-29.01V15.82h19.7Z"/>
  </g>
  <g>
    <path class="cls-1" d="m11.13,154.87v-67.16h23.55c7.07,15.13,17.3,35.56,20.12,43.83h.33c-.75-6.97-.92-18.84-.92-29.55v-14.29h17.94v67.16h-22.44c-5.7-12.16-17.85-37.36-21-46.22h-.26c.62,6.32.68,19.32.68,31.14v15.08H11.13Z"/>
    <path class="cls-1" d="m102.99,141.81l-3.89,13.06h-19.17l21.23-67.16h25.48l22.06,67.16h-20.55l-4.08-13.06h-21.08Zm17.63-14.58c-3.16-10.55-5.74-19.93-7.26-26.48h-.27c-1.56,7.24-4.12,16.82-6.85,26.48h14.37Z"/>
    <path class="cls-1" d="m215.57,132.78c-2.46,14.04-12.77,23.34-31.2,23.34-22,0-32.62-14.85-32.62-34.34s10.5-35.32,33.58-35.32c19.74,0,28.72,11.48,30.05,23.1h-19.53c-.9-4.85-3.7-9.27-10.97-9.27-9.57,0-12.83,9.08-12.83,20.81,0,10.65,2.72,21.16,13.05,21.16,7.83,0,10.01-5.68,10.85-9.48h19.63Z"/>
    <path class="cls-1" d="m224.98,87.71h19.54v27.27c4.39-6.13,14.31-18.42,20.94-27.27h23.31l-24.68,27.52,25.52,39.64h-23.06l-16.08-26.94-5.94,6.12v20.81h-19.54v-67.16Z"/>
  </g>
  <g>
    <g>
      <polygon class="cls-4" points="66 15.83 62.11 16.96 65.03 19.77 66 15.83"/>
      <polygon class="cls-3" points="66.73 25.62 56.18 15.5 70.22 11.44 66.73 25.62"/>
    </g>
    <g>
      <path class="cls-5" d="m4.19,60.56c10.21,16.62,31.96,21.81,48.57,11.6,16.62-10.21,21.81-31.96,11.6-48.57L4.19,60.56Z"/>
      <path class="cls-2" d="m34.35,80.43c-12.9,0-25.52-6.5-32.75-18.28l-1.6-2.59L65.37,19.4l1.6,2.59c11.07,18.03,5.41,41.7-12.6,52.77-6.25,3.84-13.17,5.67-20.01,5.67Zm-25.85-18.94c4.5,6,10.9,10.21,18.28,11.97,8.38,1.98,17.05.62,24.39-3.89,14.28-8.78,19.32-26.97,12.07-41.72L8.5,61.49Z"/>
    </g>
    <g>
      <path class="cls-5" d="m32.99,42.94c-5.33-8.67-2.62-20.02,6.06-25.35,8.67-5.33,20.02-2.62,25.35,6.06l-31.41,19.3Z"/>
      <path class="cls-2" d="m31.99,47.13l-1.6-2.59c-6.2-10.09-3.03-23.34,7.05-29.54,4.9-3.02,10.67-3.92,16.24-2.59,5.58,1.33,10.31,4.76,13.31,9.65l1.6,2.59-36.6,22.48Zm16.68-29.23c-2.82,0-5.58.78-8.03,2.29-6.33,3.9-8.86,11.67-6.39,18.4l25.7-15.78c-2.05-2.21-4.7-3.76-7.68-4.48-1.2-.29-2.4-.43-3.6-.43Z"/>
    </g>
  </g>
</svg>