<?xml version="1.0" encoding="UTF-8"?>
<svg id="Warstwa_1" data-name="Warstwa 1" xmlns="http://www.w3.org/2000/svg" viewBox="0 0 85.07 59.64">
  <defs>
    <style>
      .cls-1 {
        fill: #f49523;
      }

      .cls-2 {
        fill: #e84339;
      }

      .cls-3 {
        fill: #eb5c2c;
      }

      .cls-4 {
        fill: #f9b041;
      }
    </style>
  </defs>
  <g>
    <polygon class="cls-3" points="79.17 15.84 75.27 14.73 76.26 18.67 79.17 15.84"/>
    <polygon class="cls-2" points="74.6 24.53 71.02 10.36 85.07 14.36 74.6 24.53"/>
  </g>
  <g>
    <path class="cls-4" d="m3.04,21c-.15,19.5,15.53,35.44,35.04,35.59,19.5.15,35.44-15.53,35.59-35.04l-70.62-.55Z"/>
    <path class="cls-1" d="m18.08,53.83C7.14,46.99-.11,34.79,0,20.98l.02-3.05,76.72.6-.02,3.05c-.17,21.16-17.52,38.23-38.66,38.07-7.33-.05-14.17-2.18-19.97-5.81ZM6.21,24.07c.63,7.47,3.83,14.43,9.15,19.85,6.05,6.12,14.13,9.56,22.74,9.63,16.76.13,30.68-12.62,32.35-28.97l-64.24-.5Z"/>
  </g>
  <g>
    <path class="cls-4" d="m36.81,21.33c.08-10.18,8.4-18.37,18.57-18.29,10.18.08,18.37,8.4,18.29,18.57l-36.86-.29Z"/>
    <path class="cls-1" d="m33.74,24.35l.02-3.05C33.85,9.46,43.56-.09,55.4,0c5.75.04,11.12,2.33,15.14,6.41,4.02,4.09,6.22,9.5,6.17,15.24l-.02,3.05-42.95-.34Zm29.64-15.94c-2.39-1.49-5.14-2.3-8.02-2.32-7.44-.05-13.7,5.2-15.17,12.22l30.16.24c-.57-2.96-1.99-5.68-4.14-7.87-.86-.88-1.81-1.64-2.83-2.27Z"/>
  </g>
</svg>