<?xml version="1.0" encoding="UTF-8"?>
<svg id="Warstwa_1" data-name="Warstwa 1" xmlns="http://www.w3.org/2000/svg" xmlns:xlink="http://www.w3.org/1999/xlink" viewBox="0 0 126.01 100">
  <defs>
    <style>
      .cls-1 {
        fill: #f39422;
      }

      .cls-2 {
        fill: #eb5b2b;
      }

      .cls-3 {
        fill: #e84238;
      }

      .cls-4 {
        clip-path: url(#clippath);
      }

      .cls-5 {
        fill: none;
      }

      .cls-6 {
        fill: #f9b041;
      }
    </style>
    <clipPath id="clippath">
      <rect class="cls-5" x="0" width="126" height="100"/>
    </clipPath>
  </defs>
  <g class="cls-4">
    <g>
      <path class="cls-2" d="m111.88,13.41l-6.04.38,3.35,5.06,2.7-5.44Z"/>
      <path class="cls-3" d="m110.24,35.83l15.77-31.82-35.36,2.2,19.59,29.61Z"/>
      <path class="cls-6" d="m7.18,58.61c9.47,27.62,39.49,42.32,67.04,32.82,27.55-9.5,42.21-39.59,32.74-67.21L7.18,58.61Z"/>
      <path class="cls-1" d="m57.02,100c6.39,0,12.82-1.07,19.04-3.21,14.75-5.08,26.65-15.62,33.49-29.68,6.85-14.05,7.82-29.94,2.75-44.73l-1.84-5.36L0,55.09l1.84,5.36c5.07,14.79,15.58,26.72,29.6,33.58,8.1,3.97,16.82,5.97,25.58,5.97h0ZM103.14,31.53c2.22,10.3.94,20.98-3.74,30.6-5.52,11.33-15.11,19.83-27.01,23.93-11.9,4.09-24.67,3.31-35.98-2.22-9.6-4.7-17.15-12.34-21.72-21.83l88.45-30.48Z"/>
      <path class="cls-6" d="m54.92,42.26c-4.94-14.42,2.71-30.12,17.09-35.08,14.38-4.96,30.04,2.71,34.99,17.13l-52.07,17.95Z"/>
      <path class="cls-1" d="m51.41,49.46l62.77-21.62-1.84-5.36c-2.88-8.4-8.86-15.18-16.82-19.08-7.97-3.9-16.98-4.46-25.35-1.57-8.38,2.88-15.14,8.87-19.03,16.86-3.89,7.98-4.44,17.01-1.56,25.42l1.84,5.36h0Zm47.71-28.42l-40,13.78c-.27-3.81.46-7.64,2.18-11.16,2.56-5.26,7.02-9.22,12.55-11.12,5.53-1.9,11.47-1.54,16.72,1.03,3.51,1.72,6.44,4.29,8.56,7.46Z"/>
    </g>
  </g>
</svg>