<?xml version="1.0" encoding="utf-8"?>
<!-- Generator: Adobe Illustrator 27.4.0, SVG Export Plug-In . SVG Version: 6.00 Build 0)  -->
<svg version="1.1" id="Warstwa_1" xmlns="http://www.w3.org/2000/svg" xmlns:xlink="http://www.w3.org/1999/xlink" x="0px" y="0px"
	 viewBox="0 0 800 800" style="enable-background:new 0 0 800 800;" xml:space="preserve">
<style type="text/css">
	.st0{fill:#FFFFFF;}
</style>
<path class="st0" d="M421.75,472.85h-26.2c-2.93,0-5.3-0.68-7.1-2.05c-1.8-1.37-3.17-3.12-4.1-5.25l-8.6-25.4h-55.4l-8.6,25.4
	c-0.73,1.87-2.05,3.55-3.95,5.05s-4.25,2.25-7.05,2.25h-26.4l56.4-145.7h34.6L421.75,472.85z M368.05,417.15l-13.5-39.9
	c-1-2.53-2.07-5.52-3.2-8.95c-1.13-3.43-2.27-7.15-3.4-11.15c-1,4.07-2.07,7.83-3.2,11.3c-1.13,3.47-2.2,6.47-3.2,9l-13.4,39.7
	H368.05z"/>
<rect x="427.65" y="388.9" class="st0" width="99" height="22.2"/>
<rect x="427.65" y="388.9" transform="matrix(3.464102e-07 -1 1 3.464102e-07 77.1497 877.1498)" class="st0" width="99" height="22.2"/>
<rect x="542.67" y="388.9" class="st0" width="99" height="22.2"/>
<rect x="542.67" y="388.9" transform="matrix(3.464102e-07 -1 1 3.464102e-07 192.1675 992.1677)" class="st0" width="99" height="22.2"/>
</svg>
