<?xml version="1.0" encoding="UTF-8"?>
<svg id="Warstwa_1" data-name="Warstwa 1" xmlns="http://www.w3.org/2000/svg" viewBox="0 0 42.95 40.2">
  <defs>
    <style>
      .cls-1 {
        fill: #f3f1f4;
      }

      .cls-2 {
        fill: none;
        stroke: #f4f1f5;
        stroke-width: 3px;
      }
    </style>
  </defs>
  <path class="cls-2" d="m21.86,4.67l4.23,11.84h12.27l-10.15,7.43,3.85,11.73-10.2-8.57-10.2,8.57,3.85-12.99-10.15-6.17h12.69l3.81-11.84Z"/>
  <path class="cls-1" d="m15.38,18.48c-.15.21-.29.44-.4.68-.19.43-.39.86-.49,1.32-.1.33-.12.66-.04,1,.02.33.11.64.3.93.16.29.37.53.64.7.24.22.52.37.85.45l.66.09c.45,0,.87-.12,1.26-.34l.51-.39c.31-.31.52-.68.64-1.1.05-.22.12-.44.21-.65l-.25.6c.11-.27.26-.52.43-.76.18-.29.28-.6.3-.93.07-.33.06-.66-.04-1-.08-.33-.23-.61-.45-.85-.18-.27-.41-.49-.7-.64l-.6-.25c-.44-.12-.89-.12-1.33,0l-.6.25c-.38.22-.67.52-.9.9h0Z"/>
  <path class="cls-1" d="m18.48,18.11l-5.92-1.83-1.33,4.82c1.81.39,3.54,1.09,5.37,1.41,1.99.35,4.64.62,5.61-1.62.44-1.02.06-2.04.31-3.05.09-.36.54-.96.74-1.4.38-.83.38-1.72.56-2.51.17-.75.8-1.58.68-2.57l-4.91.66c.5,2.5,1.13,4.96,1.89,7.4.34,1.12,1.28,1.76,2.41,1.84.68.05,1.42.38,2.11.49,1.05.18,2.02.22,3.08.03,1.25-.22,2.55-1.07,3.72-1.04,1.23.03,2.31-.97,2.46-2.17.15-1.29-.59-2.31-1.79-2.74-1.97-.71-4.24.12-5.54,1.7-.46.56-.73,1.43-1.2,1.92-.28.29-.78.45-1.12.67-.55.35-1.06.77-1.55,1.21-.81.73-1.6,1.53-1.73,2.67s.46,2.17,1.01,3.13c1.02,1.79,2.31,3.44,3.75,4.91.87.88,2.33.96,3.28.2,1.04-.83,1.17-2.06.64-3.23-.68-1.51-1.37-3.02-2.05-4.53-.61-1.35-1.12-2.82-2-4.03-1-1.37-2.61-1.63-3.93-.51-1.12.95-1.82,2.23-2.43,3.54l4.57.6-.95-3.19c-.71-2.4-4.09-2.35-4.82,0-1.24,3.98-4.92,6.05-7.24,9.32l4.57,1.93c.66-3.06,2.04-5.82,3.46-8.59s-2.55-5.22-4.32-2.52c-.75,1.15-1.31,2.43-1.65,3.77-.68,2.67,3.21,4.5,4.57,1.93l1.17-2.23c.63-1.19.3-2.72-.9-3.42-1.13-.66-2.79-.3-3.42.9l-1.17,2.23,4.57,1.93c.24-.95.61-1.75,1.15-2.57l-4.32-2.52c-1.61,3.13-3.22,6.32-3.96,9.78-.61,2.84,2.94,4.24,4.57,1.93,1.18-1.67,2.91-2.9,4.28-4.42,1.6-1.78,2.75-3.82,3.46-6.1h-4.82l.95,3.19c.57,1.9,3.62,2.64,4.57.6.44-.94.85-1.85,1.65-2.53l-3.93-.51c.88,1.2,1.39,2.68,2,4.03.68,1.51,1.37,3.02,2.05,4.53l3.93-3.03c-.73-.75-1.42-1.52-2.01-2.38-.31-.44-.59-.9-.86-1.36-.12-.21-.24-.41-.35-.63-.09-.16-.17-.32-.25-.48-.12-.22-.11-.21.04,0v1.33c-.4.6-.4.68-.02.26.18-.18.37-.35.56-.52.21-.18.43-.32.67-.47.74-.45,1.47-.87,2.05-1.54.48-.56.77-1.4,1.18-1.9.15-.18.22-.27.44-.33-.21.06-.36,0,.05.15l.66-4.91c-1.64-.04-2.88.7-4.41,1.07s-3-.46-4.49-.56l2.41,1.84c-.75-2.43-1.38-4.9-1.89-7.4-.24-1.2-1.6-1.96-2.74-1.79s-2.32,1.21-2.17,2.46c.05-.06.08-.12.1-.2-.1.17-.18.35-.26.53-.18.41-.32.79-.4,1.23-.13.72-.05,1.16-.35,1.69-.4.7-.79,1.41-.95,2.2-.09.46-.12.93-.13,1.4,0,.25,0,.5.01.75-.04.53,0,.5.12-.11l.9-.9c.89-.41.44-.2,0-.22-.2,0-.4-.02-.6-.05-.6-.08-1.2-.26-1.79-.42-1.19-.34-2.37-.73-3.58-.99-3.14-.67-4.42,3.86-1.33,4.82l5.92,1.83c3.08.95,4.4-3.87,1.33-4.82h0Z"/>
</svg>