<?xml version="1.0" encoding="UTF-8"?>
<svg id="Warstwa_1" data-name="Warstwa 1" xmlns="http://www.w3.org/2000/svg" viewBox="0 0 147.4 145.7">
  <defs>
    <style>
      .cls-1 {
        fill: #fff;
      }
    </style>
  </defs>
  <path class="cls-1" d="m147.4,145.7h-26.2c-2.93,0-5.3-.68-7.1-2.05-1.8-1.37-3.17-3.12-4.1-5.25l-8.6-25.4h-55.4l-8.6,25.4c-.73,1.87-2.05,3.55-3.95,5.05s-4.25,2.25-7.05,2.25H0L56.4,0h34.6l56.4,145.7Zm-53.7-55.7l-13.5-39.9c-1-2.53-2.07-5.52-3.2-8.95-1.13-3.43-2.27-7.15-3.4-11.15-1,4.07-2.07,7.83-3.2,11.3-1.13,3.47-2.2,6.47-3.2,9l-13.4,39.7h39.9Z"/>
</svg>